{
    "asset" : {
        "generator" : "Khronos glTF Blender I/O v1.7.33",
        "version" : "2.0"
    },
    "scene" : 0,
    "scenes" : [
        {
            "name" : "Scene",
            "nodes" : [
                0
            ]
        }
    ],
    "nodes" : [
        {
            "mesh" : 0,
            "name" : "Cylinder",
            "scale" : [
                0.9655282497406006,
                0.020955150946974754,
                0.9655282497406006
            ],
            "translation" : [
                0,
                0.10532748699188232,
                0
            ]
        }
    ],
    "materials" : [
        {
            "doubleSided" : true,
            "name" : "Material.001",
            "pbrMetallicRoughness" : {
                "baseColorFactor" : [
                    0.3235565423965454,
                    0.208029642701149,
                    0.022202853113412857,
                    1
                ],
                "metallicFactor" : 0,
                "roughnessFactor" : 0.5
            }
        },
        {
            "doubleSided" : true,
            "name" : "Material.002",
            "pbrMetallicRoughness" : {
                "baseColorFactor" : [
                    0,
                    0,
                    0,
                    1
                ],
                "metallicFactor" : 0,
                "roughnessFactor" : 0.5
            }
        }
    ],
    "meshes" : [
        {
            "name" : "Cylinder",
            "primitives" : [
                {
                    "attributes" : {
                        "POSITION" : 0,
                        "NORMAL" : 1,
                        "TEXCOORD_0" : 2
                    },
                    "indices" : 3,
                    "material" : 0
                },
                {
                    "attributes" : {
                        "POSITION" : 4,
                        "NORMAL" : 5,
                        "TEXCOORD_0" : 6
                    },
                    "indices" : 3,
                    "material" : 1
                }
            ]
        }
    ],
    "accessors" : [
        {
            "bufferView" : 0,
            "componentType" : 5126,
            "count" : 1091,
            "max" : [
                1.3050994873046875,
                1.4773542881011963,
                1.078800916671753
            ],
            "min" : [
                -1.374789834022522,
                -1.4773544073104858,
                -1.1536720991134644
            ],
            "type" : "VEC3"
        },
        {
            "bufferView" : 1,
            "componentType" : 5126,
            "count" : 1091,
            "type" : "VEC3"
        },
        {
            "bufferView" : 2,
            "componentType" : 5126,
            "count" : 1091,
            "type" : "VEC2"
        },
        {
            "bufferView" : 3,
            "componentType" : 5123,
            "count" : 4608,
            "type" : "SCALAR"
        },
        {
            "bufferView" : 4,
            "componentType" : 5126,
            "count" : 1091,
            "max" : [
                0.3846893310546875,
                3.3160815238952637,
                0.3846893310546875
            ],
            "min" : [
                -0.3846893310546875,
                -0.14494287967681885,
                -0.3846893310546875
            ],
            "type" : "VEC3"
        },
        {
            "bufferView" : 5,
            "componentType" : 5126,
            "count" : 1091,
            "type" : "VEC3"
        },
        {
            "bufferView" : 6,
            "componentType" : 5126,
            "count" : 1091,
            "type" : "VEC2"
        }
    ],
    "bufferViews" : [
        {
            "buffer" : 0,
            "byteLength" : 13092,
            "byteOffset" : 0
        },
        {
            "buffer" : 0,
            "byteLength" : 13092,
            "byteOffset" : 13092
        },
        {
            "buffer" : 0,
            "byteLength" : 8728,
            "byteOffset" : 26184
        },
        {
            "buffer" : 0,
            "byteLength" : 9216,
            "byteOffset" : 34912
        },
        {
            "buffer" : 0,
            "byteLength" : 13092,
            "byteOffset" : 44128
        },
        {
            "buffer" : 0,
            "byteLength" : 13092,
            "byteOffset" : 57220
        },
        {
            "buffer" : 0,
            "byteLength" : 8728,
            "byteOffset" : 70312
        }
    ],
    "buffers" : [
        {
            "byteLength" : 79040,
            "uri" : "data:application/octet-stream;base64,"
        }
    ]
}
