{
    "asset" : {
        "generator" : "Khronos glTF Blender I/O v1.7.33",
        "version" : "2.0"
    },
    "scene" : 0,
    "scenes" : [
        {
            "name" : "Scene",
            "nodes" : [
                0
            ]
        }
    ],
    "nodes" : [
        {
            "mesh" : 0,
            "name" : "Cylinder",
            "scale" : [
                0.4424275755882263,
                0.5890081524848938,
                0.4424275755882263
            ],
            "translation" : [
                0,
                0.9961788654327393,
                0
            ]
        }
    ],
    "materials" : [
        {
            "doubleSided" : true,
            "name" : "Material.001",
            "pbrMetallicRoughness" : {
                "baseColorFactor" : [
                    0.08042706549167633,
                    0.3440451920032501,
                    0.8000000715255737,
                    1
                ],
                "metallicFactor" : 0,
                "roughnessFactor" : 0.5
            }
        }
    ],
    "meshes" : [
        {
            "name" : "Cylinder",
            "primitives" : [
                {
                    "attributes" : {
                        "POSITION" : 0,
                        "NORMAL" : 1,
                        "TEXCOORD_0" : 2
                    },
                    "indices" : 3,
                    "material" : 0
                }
            ]
        }
    ],
    "accessors" : [
        {
            "bufferView" : 0,
            "componentType" : 5126,
            "count" : 220,
            "max" : [
                1.9900000095367432,
                1.6949999332427979,
                1.9900000095367432
            ],
            "min" : [
                -1.9900000095367432,
                -1.6949999332427979,
                -1.9900000095367432
            ],
            "type" : "VEC3"
        },
        {
            "bufferView" : 1,
            "componentType" : 5126,
            "count" : 220,
            "type" : "VEC3"
        },
        {
            "bufferView" : 2,
            "componentType" : 5126,
            "count" : 220,
            "type" : "VEC2"
        },
        {
            "bufferView" : 3,
            "componentType" : 5123,
            "count" : 852,
            "type" : "SCALAR"
        }
    ],
    "bufferViews" : [
        {
            "buffer" : 0,
            "byteLength" : 2640,
            "byteOffset" : 0
        },
        {
            "buffer" : 0,
            "byteLength" : 2640,
            "byteOffset" : 2640
        },
        {
            "buffer" : 0,
            "byteLength" : 1760,
            "byteOffset" : 5280
        },
        {
            "buffer" : 0,
            "byteLength" : 1704,
            "byteOffset" : 7040
        }
    ],
    "buffers" : [
        {
            "byteLength" : 8744,
            "uri" : "data:application/octet-stream;base64,"
        }
    ]
}
