{
    "asset" : {
        "generator" : "Khronos glTF Blender I/O v1.7.33",
        "version" : "2.0"
    },
    "scene" : 0,
    "scenes" : [
        {
            "name" : "Scene",
            "nodes" : [
                0,
                1,
                2,
                3,
                4,
                5,
                6,
                7
            ]
        }
    ],
    "nodes" : [
        {
            "mesh" : 0,
            "name" : "Cylinder.002",
            "scale" : [
                2.9913251399993896,
                2.45711088180542,
                3.039745807647705
            ],
            "translation" : [
                -7.14418363571167,
                3.053051471710205,
                0.4828363060951233
            ]
        },
        {
            "mesh" : 1,
            "name" : "Text",
            "rotation" : [
                0.734040379524231,
                -0.01875384710729122,
                0.02988307736814022,
                0.6781888008117676
            ],
            "scale" : [
                0.6816404461860657,
                0.9968459606170654,
                0.7350967526435852
            ],
            "translation" : [
                -1.1680119037628174,
                2.6950442790985107,
                2.996393918991089
            ]
        },
        {
            "mesh" : 2,
            "name" : "Text.001",
            "rotation" : [
                0.7748605608940125,
                0.002016095444560051,
                -0.013416334055364132,
                0.6319867372512817
            ],
            "scale" : [
                0.4303785562515259,
                31.39036750793457,
                0.5691882371902466
            ],
            "translation" : [
                -8.20459270477295,
                1.7534242868423462,
                3.837928056716919
            ]
        },
        {
            "mesh" : 3,
            "name" : "Cylinder.001",
            "scale" : [
                2.9913251399993896,
                2.45711088180542,
                3.039745807647705
            ],
            "translation" : [
                -7.14418363571167,
                3.053051471710205,
                0.4828363060951233
            ]
        },
        {
            "mesh" : 4,
            "name" : "Cylinder.003",
            "scale" : [
                2.9913251399993896,
                2.45711088180542,
                3.039745807647705
            ],
            "translation" : [
                -7.14418363571167,
                3.053051471710205,
                0.4828363060951233
            ]
        },
        {
            "mesh" : 5,
            "name" : "Cylinder.004",
            "scale" : [
                2.9913251399993896,
                2.45711088180542,
                3.039745807647705
            ],
            "translation" : [
                -7.14418363571167,
                3.053051471710205,
                0.4828363060951233
            ]
        },
        {
            "mesh" : 6,
            "name" : "Sphere",
            "rotation" : [
                0,
                0,
                0.15654771029949188,
                0.9876704216003418
            ],
            "scale" : [
                1.0163263082504272,
                0.6349592208862305,
                0.6612223982810974
            ],
            "translation" : [
                0.21076621115207672,
                1.298384666442871,
                2.813804864883423
            ]
        },
        {
            "mesh" : 7,
            "name" : "Sphere.001",
            "rotation" : [
                0,
                0,
                0.15654771029949188,
                0.9876704216003418
            ],
            "scale" : [
                1.0163263082504272,
                0.6349592208862305,
                0.6612223982810974
            ],
            "translation" : [
                -7.047997951507568,
                3.6058905124664307,
                3.2451107501983643
            ]
        }
    ],
    "materials" : [
        {
            "doubleSided" : true,
            "name" : "Material.010",
            "pbrMetallicRoughness" : {
                "baseColorFactor" : [
                    0.26421454548835754,
                    0.8000000715255737,
                    0.7367197871208191,
                    1
                ],
                "metallicFactor" : 0,
                "roughnessFactor" : 0.5
            }
        },
        {
            "doubleSided" : true,
            "name" : "Material.004",
            "pbrMetallicRoughness" : {
                "baseColorFactor" : [
                    0.800000011920929,
                    0.800000011920929,
                    0.800000011920929,
                    1
                ],
                "metallicFactor" : 0,
                "roughnessFactor" : 0.5
            }
        },
        {
            "doubleSided" : true,
            "name" : "Material.005",
            "pbrMetallicRoughness" : {
                "baseColorFactor" : [
                    0.800000011920929,
                    0.800000011920929,
                    0.800000011920929,
                    1
                ],
                "metallicFactor" : 0,
                "roughnessFactor" : 0.5
            }
        },
        {
            "doubleSided" : true,
            "name" : "Material.008",
            "pbrMetallicRoughness" : {
                "baseColorFactor" : [
                    0.06415852904319763,
                    0.03927392512559891,
                    0.8000000715255737,
                    1
                ],
                "metallicFactor" : 0,
                "roughnessFactor" : 0.5
            }
        },
        {
            "doubleSided" : true,
            "name" : "Material.009",
            "pbrMetallicRoughness" : {
                "baseColorFactor" : [
                    0.29423418641090393,
                    0.8000000715255737,
                    0.7190828919410706,
                    1
                ],
                "metallicFactor" : 0,
                "roughnessFactor" : 0.5
            }
        },
        {
            "doubleSided" : true,
            "name" : "Material.011",
            "pbrMetallicRoughness" : {
                "baseColorFactor" : [
                    0.8000000715255737,
                    0.3153712749481201,
                    0.051395073533058167,
                    1
                ],
                "metallicFactor" : 0,
                "roughnessFactor" : 0.5
            }
        }
    ],
    "meshes" : [
        {
            "name" : "Cylinder.003",
            "primitives" : [
                {
                    "attributes" : {
                        "POSITION" : 0,
                        "NORMAL" : 1,
                        "TEXCOORD_0" : 2
                    },
                    "indices" : 3,
                    "material" : 0
                }
            ]
        },
        {
            "name" : "Text",
            "primitives" : [
                {
                    "attributes" : {
                        "POSITION" : 4,
                        "NORMAL" : 5,
                        "TEXCOORD_0" : 6
                    },
                    "indices" : 7,
                    "material" : 1
                }
            ]
        },
        {
            "name" : "Text.001",
            "primitives" : [
                {
                    "attributes" : {
                        "POSITION" : 8,
                        "NORMAL" : 9,
                        "TEXCOORD_0" : 10
                    },
                    "indices" : 11,
                    "material" : 2
                }
            ]
        },
        {
            "name" : "Cylinder.001",
            "primitives" : [
                {
                    "attributes" : {
                        "POSITION" : 12,
                        "NORMAL" : 13,
                        "TEXCOORD_0" : 14
                    },
                    "indices" : 15,
                    "material" : 3
                }
            ]
        },
        {
            "name" : "Cylinder.002",
            "primitives" : [
                {
                    "attributes" : {
                        "POSITION" : 16,
                        "NORMAL" : 17,
                        "TEXCOORD_0" : 18
                    },
                    "indices" : 19,
                    "material" : 4
                }
            ]
        },
        {
            "name" : "Cylinder.004",
            "primitives" : [
                {
                    "attributes" : {
                        "POSITION" : 20,
                        "NORMAL" : 21,
                        "TEXCOORD_0" : 22
                    },
                    "indices" : 23,
                    "material" : 3
                }
            ]
        },
        {
            "name" : "Sphere",
            "primitives" : [
                {
                    "attributes" : {
                        "POSITION" : 24,
                        "NORMAL" : 25,
                        "TEXCOORD_0" : 26
                    },
                    "indices" : 27,
                    "material" : 5
                }
            ]
        },
        {
            "name" : "Sphere.001",
            "primitives" : [
                {
                    "attributes" : {
                        "POSITION" : 28,
                        "NORMAL" : 29,
                        "TEXCOORD_0" : 30
                    },
                    "indices" : 27,
                    "material" : 5
                }
            ]
        }
    ],
    "accessors" : [
        {
            "bufferView" : 0,
            "componentType" : 5126,
            "count" : 130,
            "max" : [
                1,
                1,
                1
            ],
            "min" : [
                -1,
                0.3333333134651184,
                -1
            ],
            "type" : "VEC3"
        },
        {
            "bufferView" : 1,
            "componentType" : 5126,
            "count" : 130,
            "type" : "VEC3"
        },
        {
            "bufferView" : 2,
            "componentType" : 5126,
            "count" : 130,
            "type" : "VEC2"
        },
        {
            "bufferView" : 3,
            "componentType" : 5123,
            "count" : 198,
            "type" : "SCALAR"
        },
        {
            "bufferView" : 4,
            "componentType" : 5126,
            "count" : 540,
            "max" : [
                2.6780002117156982,
                0,
                0.009000000543892384
            ],
            "min" : [
                0,
                0,
                -0.6820000410079956
            ],
            "type" : "VEC3"
        },
        {
            "bufferView" : 5,
            "componentType" : 5126,
            "count" : 540,
            "type" : "VEC3"
        },
        {
            "bufferView" : 6,
            "componentType" : 5126,
            "count" : 540,
            "type" : "VEC2"
        },
        {
            "bufferView" : 7,
            "componentType" : 5123,
            "count" : 1179,
            "type" : "SCALAR"
        },
        {
            "bufferView" : 8,
            "componentType" : 5126,
            "count" : 1200,
            "max" : [
                4.987000465393066,
                0,
                0.009000000543892384
            ],
            "min" : [
                0.04000000283122063,
                0,
                -0.6910000443458557
            ],
            "type" : "VEC3"
        },
        {
            "bufferView" : 9,
            "componentType" : 5126,
            "count" : 1200,
            "type" : "VEC3"
        },
        {
            "bufferView" : 10,
            "componentType" : 5126,
            "count" : 1200,
            "type" : "VEC2"
        },
        {
            "bufferView" : 11,
            "componentType" : 5123,
            "count" : 2637,
            "type" : "SCALAR"
        },
        {
            "bufferView" : 12,
            "componentType" : 5126,
            "count" : 266,
            "max" : [
                1.0000001192092896,
                0.33333343267440796,
                1.0000001192092896
            ],
            "min" : [
                -1.0000001192092896,
                -0.9999998807907104,
                -1.0000001192092896
            ],
            "type" : "VEC3"
        },
        {
            "bufferView" : 13,
            "componentType" : 5126,
            "count" : 266,
            "type" : "VEC3"
        },
        {
            "bufferView" : 14,
            "componentType" : 5126,
            "count" : 266,
            "type" : "VEC2"
        },
        {
            "bufferView" : 15,
            "componentType" : 5123,
            "count" : 474,
            "type" : "SCALAR"
        },
        {
            "bufferView" : 16,
            "componentType" : 5126,
            "count" : 132,
            "max" : [
                3.480668067932129,
                0.9693899154663086,
                0.8236562609672546
            ],
            "min" : [
                1.4806679487228394,
                0.302723228931427,
                -1.1763439178466797
            ],
            "type" : "VEC3"
        },
        {
            "bufferView" : 17,
            "componentType" : 5126,
            "count" : 132,
            "type" : "VEC3"
        },
        {
            "bufferView" : 18,
            "componentType" : 5126,
            "count" : 132,
            "type" : "VEC2"
        },
        {
            "bufferView" : 19,
            "componentType" : 5123,
            "count" : 198,
            "type" : "SCALAR"
        },
        {
            "bufferView" : 20,
            "componentType" : 5126,
            "count" : 268,
            "max" : [
                3.480668306350708,
                0.30272334814071655,
                0.8236563801765442
            ],
            "min" : [
                1.4806678295135498,
                -1.0306099653244019,
                -1.1763440370559692
            ],
            "type" : "VEC3"
        },
        {
            "bufferView" : 21,
            "componentType" : 5126,
            "count" : 268,
            "type" : "VEC3"
        },
        {
            "bufferView" : 22,
            "componentType" : 5126,
            "count" : 268,
            "type" : "VEC2"
        },
        {
            "bufferView" : 23,
            "componentType" : 5123,
            "count" : 474,
            "type" : "SCALAR"
        },
        {
            "bufferView" : 24,
            "componentType" : 5126,
            "count" : 1984,
            "max" : [
                0.9999997019767761,
                1,
                0.9999994039535522
            ],
            "min" : [
                -0.9999990463256836,
                -1,
                -0.9999987483024597
            ],
            "type" : "VEC3"
        },
        {
            "bufferView" : 25,
            "componentType" : 5126,
            "count" : 1984,
            "type" : "VEC3"
        },
        {
            "bufferView" : 26,
            "componentType" : 5126,
            "count" : 1984,
            "type" : "VEC2"
        },
        {
            "bufferView" : 27,
            "componentType" : 5123,
            "count" : 2880,
            "type" : "SCALAR"
        },
        {
            "bufferView" : 28,
            "componentType" : 5126,
            "count" : 1984,
            "max" : [
                0.9999997019767761,
                1,
                0.9999994039535522
            ],
            "min" : [
                -0.9999990463256836,
                -1,
                -0.9999987483024597
            ],
            "type" : "VEC3"
        },
        {
            "bufferView" : 29,
            "componentType" : 5126,
            "count" : 1984,
            "type" : "VEC3"
        },
        {
            "bufferView" : 30,
            "componentType" : 5126,
            "count" : 1984,
            "type" : "VEC2"
        }
    ],
    "bufferViews" : [
        {
            "buffer" : 0,
            "byteLength" : 1560,
            "byteOffset" : 0
        },
        {
            "buffer" : 0,
            "byteLength" : 1560,
            "byteOffset" : 1560
        },
        {
            "buffer" : 0,
            "byteLength" : 1040,
            "byteOffset" : 3120
        },
        {
            "buffer" : 0,
            "byteLength" : 396,
            "byteOffset" : 4160
        },
        {
            "buffer" : 0,
            "byteLength" : 6480,
            "byteOffset" : 4556
        },
        {
            "buffer" : 0,
            "byteLength" : 6480,
            "byteOffset" : 11036
        },
        {
            "buffer" : 0,
            "byteLength" : 4320,
            "byteOffset" : 17516
        },
        {
            "buffer" : 0,
            "byteLength" : 2358,
            "byteOffset" : 21836
        },
        {
            "buffer" : 0,
            "byteLength" : 14400,
            "byteOffset" : 24196
        },
        {
            "buffer" : 0,
            "byteLength" : 14400,
            "byteOffset" : 38596
        },
        {
            "buffer" : 0,
            "byteLength" : 9600,
            "byteOffset" : 52996
        },
        {
            "buffer" : 0,
            "byteLength" : 5274,
            "byteOffset" : 62596
        },
        {
            "buffer" : 0,
            "byteLength" : 3192,
            "byteOffset" : 67872
        },
        {
            "buffer" : 0,
            "byteLength" : 3192,
            "byteOffset" : 71064
        },
        {
            "buffer" : 0,
            "byteLength" : 2128,
            "byteOffset" : 74256
        },
        {
            "buffer" : 0,
            "byteLength" : 948,
            "byteOffset" : 76384
        },
        {
            "buffer" : 0,
            "byteLength" : 1584,
            "byteOffset" : 77332
        },
        {
            "buffer" : 0,
            "byteLength" : 1584,
            "byteOffset" : 78916
        },
        {
            "buffer" : 0,
            "byteLength" : 1056,
            "byteOffset" : 80500
        },
        {
            "buffer" : 0,
            "byteLength" : 396,
            "byteOffset" : 81556
        },
        {
            "buffer" : 0,
            "byteLength" : 3216,
            "byteOffset" : 81952
        },
        {
            "buffer" : 0,
            "byteLength" : 3216,
            "byteOffset" : 85168
        },
        {
            "buffer" : 0,
            "byteLength" : 2144,
            "byteOffset" : 88384
        },
        {
            "buffer" : 0,
            "byteLength" : 948,
            "byteOffset" : 90528
        },
        {
            "buffer" : 0,
            "byteLength" : 23808,
            "byteOffset" : 91476
        },
        {
            "buffer" : 0,
            "byteLength" : 23808,
            "byteOffset" : 115284
        },
        {
            "buffer" : 0,
            "byteLength" : 15872,
            "byteOffset" : 139092
        },
        {
            "buffer" : 0,
            "byteLength" : 5760,
            "byteOffset" : 154964
        },
        {
            "buffer" : 0,
            "byteLength" : 23808,
            "byteOffset" : 160724
        },
        {
            "buffer" : 0,
            "byteLength" : 23808,
            "byteOffset" : 184532
        },
        {
            "buffer" : 0,
            "byteLength" : 15872,
            "byteOffset" : 208340
        }
    ],
    "buffers" : [
        {
            "byteLength" : 224212,
            "uri" : "data:application/octet-stream;base64,"
        }
    ]
}
