{
    "asset" : {
        "generator" : "Khronos glTF Blender I/O v1.7.33",
        "version" : "2.0"
    },
    "scene" : 0,
    "scenes" : [
        {
            "name" : "Scene",
            "nodes" : [
                0
            ]
        }
    ],
    "nodes" : [
        {
            "mesh" : 0,
            "name" : "falcon",
            "rotation" : [
                -0.19946253299713135,
                0,
                0,
                0.9799054265022278
            ],
            "scale" : [
                0.22044475376605988,
                0.22044481337070465,
                0.22044481337070465
            ],
            "translation" : [
                0,
                0.045531392097473145,
                -0.013254880905151367
            ]
        }
    ],
    "materials" : [
        {
            "doubleSided" : true,
            "name" : "Material",
            "pbrMetallicRoughness" : {}
        }
    ],
    "meshes" : [
        {
            "name" : "falcon",
            "primitives" : [
                {
                    "attributes" : {
                        "POSITION" : 0,
                        "NORMAL" : 1,
                        "TEXCOORD_0" : 2
                    },
                    "indices" : 3,
                    "material" : 0
                }
            ]
        }
    ],
    "accessors" : [
        {
            "bufferView" : 0,
            "componentType" : 5126,
            "count" : 10341,
            "max" : [
                6.227331638336182,
                10.962903022766113,
                4.266994476318359
            ],
            "min" : [
                -6.227331638336182,
                -1.0719505548477173,
                -6.839855194091797
            ],
            "type" : "VEC3"
        },
        {
            "bufferView" : 1,
            "componentType" : 5126,
            "count" : 10341,
            "type" : "VEC3"
        },
        {
            "bufferView" : 2,
            "componentType" : 5126,
            "count" : 10341,
            "type" : "VEC2"
        },
        {
            "bufferView" : 3,
            "componentType" : 5123,
            "count" : 45384,
            "type" : "SCALAR"
        }
    ],
    "bufferViews" : [
        {
            "buffer" : 0,
            "byteLength" : 124092,
            "byteOffset" : 0
        },
        {
            "buffer" : 0,
            "byteLength" : 124092,
            "byteOffset" : 124092
        },
        {
            "buffer" : 0,
            "byteLength" : 82728,
            "byteOffset" : 248184
        },
        {
            "buffer" : 0,
            "byteLength" : 90768,
            "byteOffset" : 330912
        }
    ],
    "buffers" : [
        {
            "byteLength" : 421680,
            "uri" : "data:application/octet-stream;base64,"
        }
    ]
}
