{
    "asset" : {
        "generator" : "Khronos glTF Blender I/O v1.7.33",
        "version" : "2.0"
    },
    "scene" : 0,
    "scenes" : [
        {
            "name" : "Scene",
            "nodes" : [
                0
            ]
        }
    ],
    "nodes" : [
        {
            "mesh" : 0,
            "name" : "falcon.001",
            "rotation" : [
                -0.19946253299713135,
                0,
                0,
                0.9799054265022278
            ],
            "scale" : [
                0.22044475376605988,
                0.22044481337070465,
                0.22044481337070465
            ],
            "translation" : [
                0,
                0.045531392097473145,
                -0.013254880905151367
            ]
        }
    ],
    "materials" : [
        {
            "doubleSided" : true,
            "name" : "Material.004",
            "pbrMetallicRoughness" : {
                "baseColorFactor" : [
                    0.8000000715255737,
                    0.6878832578659058,
                    0.04128750041127205,
                    1
                ],
                "metallicFactor" : 0,
                "roughnessFactor" : 0.5
            }
        },
        {
            "doubleSided" : true,
            "name" : "Material.002",
            "pbrMetallicRoughness" : {
                "baseColorFactor" : [
                    0.1374061405658722,
                    0.07015633583068848,
                    0.01139360386878252,
                    1
                ],
                "metallicFactor" : 0,
                "roughnessFactor" : 0.5
            }
        },
        {
            "doubleSided" : true,
            "name" : "Material.003",
            "pbrMetallicRoughness" : {
                "baseColorFactor" : [
                    0,
                    0,
                    0,
                    1
                ],
                "metallicFactor" : 0,
                "roughnessFactor" : 0.5
            }
        },
        {
            "doubleSided" : true,
            "name" : "Material.001",
            "pbrMetallicRoughness" : {
                "baseColorFactor" : [
                    0.07563377171754837,
                    0.05651511624455452,
                    0.013901695609092712,
                    1
                ],
                "metallicFactor" : 0,
                "roughnessFactor" : 0.5
            }
        }
    ],
    "meshes" : [
        {
            "name" : "falcon.001",
            "primitives" : [
                {
                    "attributes" : {
                        "POSITION" : 0,
                        "NORMAL" : 1,
                        "TEXCOORD_0" : 2
                    },
                    "indices" : 3,
                    "material" : 0
                },
                {
                    "attributes" : {
                        "POSITION" : 4,
                        "NORMAL" : 5,
                        "TEXCOORD_0" : 6
                    },
                    "indices" : 7,
                    "material" : 1
                },
                {
                    "attributes" : {
                        "POSITION" : 8,
                        "NORMAL" : 9,
                        "TEXCOORD_0" : 10
                    },
                    "indices" : 11,
                    "material" : 2
                },
                {
                    "attributes" : {
                        "POSITION" : 12,
                        "NORMAL" : 13,
                        "TEXCOORD_0" : 14
                    },
                    "indices" : 15,
                    "material" : 3
                }
            ]
        }
    ],
    "accessors" : [
        {
            "bufferView" : 0,
            "componentType" : 5126,
            "count" : 728,
            "max" : [
                0.1344822347164154,
                -0.010060206055641174,
                4.266994476318359
            ],
            "min" : [
                -0.13448217511177063,
                -0.6776589751243591,
                3.8818254470825195
            ],
            "type" : "VEC3"
        },
        {
            "bufferView" : 1,
            "componentType" : 5126,
            "count" : 728,
            "type" : "VEC3"
        },
        {
            "bufferView" : 2,
            "componentType" : 5126,
            "count" : 728,
            "type" : "VEC2"
        },
        {
            "bufferView" : 3,
            "componentType" : 5123,
            "count" : 3228,
            "type" : "SCALAR"
        },
        {
            "bufferView" : 4,
            "componentType" : 5126,
            "count" : 6014,
            "max" : [
                6.227331638336182,
                10.962902069091797,
                4.143056869506836
            ],
            "min" : [
                -6.227331638336182,
                -1.0719504356384277,
                -6.7723565101623535
            ],
            "type" : "VEC3"
        },
        {
            "bufferView" : 5,
            "componentType" : 5126,
            "count" : 6014,
            "type" : "VEC3"
        },
        {
            "bufferView" : 6,
            "componentType" : 5126,
            "count" : 6014,
            "type" : "VEC2"
        },
        {
            "bufferView" : 7,
            "componentType" : 5123,
            "count" : 25797,
            "type" : "SCALAR"
        },
        {
            "bufferView" : 8,
            "componentType" : 5126,
            "count" : 343,
            "max" : [
                0.5262419581413269,
                0.3558215796947479,
                3.6545708179473877
            ],
            "min" : [
                -0.5255279541015625,
                0.026571372523903847,
                3.299673080444336
            ],
            "type" : "VEC3"
        },
        {
            "bufferView" : 9,
            "componentType" : 5126,
            "count" : 343,
            "type" : "VEC3"
        },
        {
            "bufferView" : 10,
            "componentType" : 5126,
            "count" : 343,
            "type" : "VEC2"
        },
        {
            "bufferView" : 11,
            "componentType" : 5123,
            "count" : 1275,
            "type" : "SCALAR"
        },
        {
            "bufferView" : 12,
            "componentType" : 5126,
            "count" : 3597,
            "max" : [
                1.0719594955444336,
                0.9800562858581543,
                -1.8446322679519653
            ],
            "min" : [
                -1.1331110000610352,
                -0.969202995300293,
                -6.839854717254639
            ],
            "type" : "VEC3"
        },
        {
            "bufferView" : 13,
            "componentType" : 5126,
            "count" : 3597,
            "type" : "VEC3"
        },
        {
            "bufferView" : 14,
            "componentType" : 5126,
            "count" : 3597,
            "type" : "VEC2"
        },
        {
            "bufferView" : 15,
            "componentType" : 5123,
            "count" : 15084,
            "type" : "SCALAR"
        }
    ],
    "bufferViews" : [
        {
            "buffer" : 0,
            "byteLength" : 8736,
            "byteOffset" : 0
        },
        {
            "buffer" : 0,
            "byteLength" : 8736,
            "byteOffset" : 8736
        },
        {
            "buffer" : 0,
            "byteLength" : 5824,
            "byteOffset" : 17472
        },
        {
            "buffer" : 0,
            "byteLength" : 6456,
            "byteOffset" : 23296
        },
        {
            "buffer" : 0,
            "byteLength" : 72168,
            "byteOffset" : 29752
        },
        {
            "buffer" : 0,
            "byteLength" : 72168,
            "byteOffset" : 101920
        },
        {
            "buffer" : 0,
            "byteLength" : 48112,
            "byteOffset" : 174088
        },
        {
            "buffer" : 0,
            "byteLength" : 51594,
            "byteOffset" : 222200
        },
        {
            "buffer" : 0,
            "byteLength" : 4116,
            "byteOffset" : 273796
        },
        {
            "buffer" : 0,
            "byteLength" : 4116,
            "byteOffset" : 277912
        },
        {
            "buffer" : 0,
            "byteLength" : 2744,
            "byteOffset" : 282028
        },
        {
            "buffer" : 0,
            "byteLength" : 2550,
            "byteOffset" : 284772
        },
        {
            "buffer" : 0,
            "byteLength" : 43164,
            "byteOffset" : 287324
        },
        {
            "buffer" : 0,
            "byteLength" : 43164,
            "byteOffset" : 330488
        },
        {
            "buffer" : 0,
            "byteLength" : 28776,
            "byteOffset" : 373652
        },
        {
            "buffer" : 0,
            "byteLength" : 30168,
            "byteOffset" : 402428
        }
    ],
    "buffers" : [
        {
            "byteLength" : 432596,
            "uri" : "data:application/octet-stream;base64,"
        }
    ]
}
