{
    "asset" : {
        "generator" : "Khronos glTF Blender I/O v1.7.33",
        "version" : "2.0"
    },
    "scene" : 0,
    "scenes" : [
        {
            "name" : "Scene",
            "nodes" : [
                0
            ]
        }
    ],
    "nodes" : [
        {
            "mesh" : 0,
            "name" : "FLYALA0",
            "rotation" : [
                0.0031086266972124577,
                -0.7070999145507812,
                0.707099974155426,
                0.0031086259987205267
            ],
            "scale" : [
                0.00015658201300539076,
                0.00015658201300539076,
                0.000156582027557306
            ],
            "translation" : [
                0.06295524537563324,
                0.12194705009460449,
                0.002596307313069701
            ]
        }
    ],
    "materials" : [
        {
            "doubleSided" : true,
            "name" : "FLYALAS.000",
            "pbrMetallicRoughness" : {
                "baseColorFactor" : [
                    0.4793201684951782,
                    0.4125427305698395,
                    0.30498743057250977,
                    1
                ],
                "metallicFactor" : 0,
                "roughnessFactor" : 0.5
            }
        },
        {
            "doubleSided" : true,
            "name" : "FLYTCUE.000",
            "pbrMetallicRoughness" : {
                "baseColorFactor" : [
                    0.28744083642959595,
                    0.2746773362159729,
                    0.20155632495880127,
                    1
                ],
                "metallicFactor" : 0,
                "roughnessFactor" : 0.5
            }
        },
        {
            "doubleSided" : true,
            "name" : "FLYPATA.000",
            "pbrMetallicRoughness" : {
                "baseColorFactor" : [
                    0,
                    0,
                    0,
                    1
                ],
                "metallicFactor" : 0,
                "roughnessFactor" : 0.5
            }
        },
        {
            "doubleSided" : true,
            "name" : "FLYTCORT.000",
            "pbrMetallicRoughness" : {
                "baseColorFactor" : [
                    0.28744083642959595,
                    0.2746773362159729,
                    0.20155632495880127,
                    1
                ],
                "metallicFactor" : 0,
                "roughnessFactor" : 0.5
            }
        },
        {
            "doubleSided" : true,
            "name" : "FLYTCAB.000",
            "pbrMetallicRoughness" : {
                "baseColorFactor" : [
                    0.28744083642959595,
                    0.2746773362159729,
                    0.20155632495880127,
                    1
                ],
                "metallicFactor" : 0,
                "roughnessFactor" : 0.5
            }
        },
        {
            "doubleSided" : true,
            "name" : "FLYOJOS.000",
            "pbrMetallicRoughness" : {
                "baseColorFactor" : [
                    0.026241231709718704,
                    0.003035264555364847,
                    0.0018211625283583999,
                    1
                ],
                "metallicFactor" : 0,
                "roughnessFactor" : 0.5
            }
        },
        {
            "doubleSided" : true,
            "name" : "FLYTCUL.000",
            "pbrMetallicRoughness" : {
                "baseColorFactor" : [
                    0.28744083642959595,
                    0.2746773362159729,
                    0.20155632495880127,
                    1
                ],
                "metallicFactor" : 0,
                "roughnessFactor" : 0.5
            }
        }
    ],
    "meshes" : [
        {
            "name" : "FLYALA0.000",
            "primitives" : [
                {
                    "attributes" : {
                        "POSITION" : 0,
                        "NORMAL" : 1,
                        "TEXCOORD_0" : 2
                    },
                    "indices" : 3,
                    "material" : 0
                },
                {
                    "attributes" : {
                        "POSITION" : 4,
                        "NORMAL" : 5,
                        "TEXCOORD_0" : 6
                    },
                    "indices" : 7,
                    "material" : 1
                },
                {
                    "attributes" : {
                        "POSITION" : 8,
                        "NORMAL" : 9,
                        "TEXCOORD_0" : 10
                    },
                    "indices" : 11,
                    "material" : 2
                },
                {
                    "attributes" : {
                        "POSITION" : 12,
                        "NORMAL" : 13,
                        "TEXCOORD_0" : 14
                    },
                    "indices" : 15,
                    "material" : 3
                },
                {
                    "attributes" : {
                        "POSITION" : 16,
                        "NORMAL" : 17,
                        "TEXCOORD_0" : 18
                    },
                    "indices" : 19,
                    "material" : 4
                },
                {
                    "attributes" : {
                        "POSITION" : 20,
                        "NORMAL" : 21,
                        "TEXCOORD_0" : 22
                    },
                    "indices" : 23,
                    "material" : 5
                },
                {
                    "attributes" : {
                        "POSITION" : 24,
                        "NORMAL" : 25,
                        "TEXCOORD_0" : 26
                    },
                    "indices" : 27,
                    "material" : 6
                }
            ]
        }
    ],
    "accessors" : [
        {
            "bufferView" : 0,
            "componentType" : 5126,
            "count" : 586,
            "max" : [
                3858.26708984375,
                1555.7764892578125,
                -1894.9256591796875
            ],
            "min" : [
                -4073.37744140625,
                -6440.0625,
                -3180.3623046875
            ],
            "type" : "VEC3"
        },
        {
            "bufferView" : 1,
            "componentType" : 5126,
            "count" : 586,
            "type" : "VEC3"
        },
        {
            "bufferView" : 2,
            "componentType" : 5126,
            "count" : 586,
            "type" : "VEC2"
        },
        {
            "bufferView" : 3,
            "componentType" : 5123,
            "count" : 1746,
            "type" : "SCALAR"
        },
        {
            "bufferView" : 4,
            "componentType" : 5126,
            "count" : 501,
            "max" : [
                1268.6978759765625,
                3234.87109375,
                -528.394775390625
            ],
            "min" : [
                -1442.23828125,
                -1050.591796875,
                -2854.30419921875
            ],
            "type" : "VEC3"
        },
        {
            "bufferView" : 5,
            "componentType" : 5126,
            "count" : 501,
            "type" : "VEC3"
        },
        {
            "bufferView" : 6,
            "componentType" : 5126,
            "count" : 501,
            "type" : "VEC2"
        },
        {
            "bufferView" : 7,
            "componentType" : 5123,
            "count" : 1596,
            "type" : "SCALAR"
        },
        {
            "bufferView" : 8,
            "componentType" : 5126,
            "count" : 2934,
            "max" : [
                4963.44677734375,
                6401.10888671875,
                2146.275146484375
            ],
            "min" : [
                -5240.88720703125,
                -3590.3515625,
                -1093.96044921875
            ],
            "type" : "VEC3"
        },
        {
            "bufferView" : 9,
            "componentType" : 5126,
            "count" : 2934,
            "type" : "VEC3"
        },
        {
            "bufferView" : 10,
            "componentType" : 5126,
            "count" : 2934,
            "type" : "VEC2"
        },
        {
            "bufferView" : 11,
            "componentType" : 5123,
            "count" : 17028,
            "type" : "SCALAR"
        },
        {
            "bufferView" : 12,
            "componentType" : 5126,
            "count" : 180,
            "max" : [
                1502.1590576171875,
                1306.5460205078125,
                -1039.5697021484375
            ],
            "min" : [
                -1724.1365966796875,
                -1330.2611083984375,
                -2735.199462890625
            ],
            "type" : "VEC3"
        },
        {
            "bufferView" : 13,
            "componentType" : 5126,
            "count" : 180,
            "type" : "VEC3"
        },
        {
            "bufferView" : 14,
            "componentType" : 5126,
            "count" : 180,
            "type" : "VEC2"
        },
        {
            "bufferView" : 15,
            "componentType" : 5123,
            "count" : 576,
            "type" : "SCALAR"
        },
        {
            "bufferView" : 16,
            "componentType" : 5126,
            "count" : 605,
            "max" : [
                802.7847900390625,
                5386.12841796875,
                -729.6068115234375
            ],
            "min" : [
                -1078.2484130859375,
                3275.63525390625,
                -2851.9365234375
            ],
            "type" : "VEC3"
        },
        {
            "bufferView" : 17,
            "componentType" : 5126,
            "count" : 605,
            "type" : "VEC3"
        },
        {
            "bufferView" : 18,
            "componentType" : 5126,
            "count" : 605,
            "type" : "VEC2"
        },
        {
            "bufferView" : 19,
            "componentType" : 5123,
            "count" : 3420,
            "type" : "SCALAR"
        },
        {
            "bufferView" : 20,
            "componentType" : 5126,
            "count" : 564,
            "max" : [
                1494.5960693359375,
                4494.56884765625,
                -1044.3638916015625
            ],
            "min" : [
                -1759.099609375,
                3208.5576171875,
                -2770.24658203125
            ],
            "type" : "VEC3"
        },
        {
            "bufferView" : 21,
            "componentType" : 5126,
            "count" : 564,
            "type" : "VEC3"
        },
        {
            "bufferView" : 22,
            "componentType" : 5126,
            "count" : 564,
            "type" : "VEC2"
        },
        {
            "bufferView" : 23,
            "componentType" : 5123,
            "count" : 3330,
            "type" : "SCALAR"
        },
        {
            "bufferView" : 24,
            "componentType" : 5126,
            "count" : 517,
            "max" : [
                1495.203857421875,
                -641.8927001953125,
                -483.828857421875
            ],
            "min" : [
                -1674.118408203125,
                -4853.44287109375,
                -2691.4912109375
            ],
            "type" : "VEC3"
        },
        {
            "bufferView" : 25,
            "componentType" : 5126,
            "count" : 517,
            "type" : "VEC3"
        },
        {
            "bufferView" : 26,
            "componentType" : 5126,
            "count" : 517,
            "type" : "VEC2"
        },
        {
            "bufferView" : 27,
            "componentType" : 5123,
            "count" : 2166,
            "type" : "SCALAR"
        }
    ],
    "bufferViews" : [
        {
            "buffer" : 0,
            "byteLength" : 7032,
            "byteOffset" : 0
        },
        {
            "buffer" : 0,
            "byteLength" : 7032,
            "byteOffset" : 7032
        },
        {
            "buffer" : 0,
            "byteLength" : 4688,
            "byteOffset" : 14064
        },
        {
            "buffer" : 0,
            "byteLength" : 3492,
            "byteOffset" : 18752
        },
        {
            "buffer" : 0,
            "byteLength" : 6012,
            "byteOffset" : 22244
        },
        {
            "buffer" : 0,
            "byteLength" : 6012,
            "byteOffset" : 28256
        },
        {
            "buffer" : 0,
            "byteLength" : 4008,
            "byteOffset" : 34268
        },
        {
            "buffer" : 0,
            "byteLength" : 3192,
            "byteOffset" : 38276
        },
        {
            "buffer" : 0,
            "byteLength" : 35208,
            "byteOffset" : 41468
        },
        {
            "buffer" : 0,
            "byteLength" : 35208,
            "byteOffset" : 76676
        },
        {
            "buffer" : 0,
            "byteLength" : 23472,
            "byteOffset" : 111884
        },
        {
            "buffer" : 0,
            "byteLength" : 34056,
            "byteOffset" : 135356
        },
        {
            "buffer" : 0,
            "byteLength" : 2160,
            "byteOffset" : 169412
        },
        {
            "buffer" : 0,
            "byteLength" : 2160,
            "byteOffset" : 171572
        },
        {
            "buffer" : 0,
            "byteLength" : 1440,
            "byteOffset" : 173732
        },
        {
            "buffer" : 0,
            "byteLength" : 1152,
            "byteOffset" : 175172
        },
        {
            "buffer" : 0,
            "byteLength" : 7260,
            "byteOffset" : 176324
        },
        {
            "buffer" : 0,
            "byteLength" : 7260,
            "byteOffset" : 183584
        },
        {
            "buffer" : 0,
            "byteLength" : 4840,
            "byteOffset" : 190844
        },
        {
            "buffer" : 0,
            "byteLength" : 6840,
            "byteOffset" : 195684
        },
        {
            "buffer" : 0,
            "byteLength" : 6768,
            "byteOffset" : 202524
        },
        {
            "buffer" : 0,
            "byteLength" : 6768,
            "byteOffset" : 209292
        },
        {
            "buffer" : 0,
            "byteLength" : 4512,
            "byteOffset" : 216060
        },
        {
            "buffer" : 0,
            "byteLength" : 6660,
            "byteOffset" : 220572
        },
        {
            "buffer" : 0,
            "byteLength" : 6204,
            "byteOffset" : 227232
        },
        {
            "buffer" : 0,
            "byteLength" : 6204,
            "byteOffset" : 233436
        },
        {
            "buffer" : 0,
            "byteLength" : 4136,
            "byteOffset" : 239640
        },
        {
            "buffer" : 0,
            "byteLength" : 4332,
            "byteOffset" : 243776
        }
    ],
    "buffers" : [
        {
            "byteLength" : 248108,
            "uri" : "data:application/octet-stream;base64,"
        }
    ]
}
