{
    "asset" : {
        "generator" : "Khronos glTF Blender I/O v1.7.33",
        "version" : "2.0"
    },
    "scene" : 0,
    "scenes" : [
        {
            "name" : "Scene",
            "nodes" : [
                2
            ]
        }
    ],
    "nodes" : [
        {
            "mesh" : 0,
            "name" : "node_id32.004",
            "translation" : [
                1.5804134607315063,
                -1.3760697841644287,
                12.235259056091309
            ]
        },
        {
            "children" : [
                0
            ],
            "name" : "node_id32",
            "rotation" : [
                -0.7071066498756409,
                0,
                0,
                0.70710688829422
            ],
            "scale" : [
                0.022287996485829353,
                0.022287989035248756,
                0.022287992760539055
            ],
            "translation" : [
                -0.0209049005061388,
                0.7932875156402588,
                -0.04570591449737549
            ]
        },
        {
            "children" : [
                1
            ],
            "name" : "root",
            "rotation" : [
                0.9994760751724243,
                -0.002814866602420807,
                -0.031659360975027084,
                -0.006114615127444267
            ],
            "scale" : [
                5.371013164520264,
                5.371013641357422,
                5.37101411819458
            ],
            "translation" : [
                -0.1081843301653862,
                6.2121405601501465,
                -0.24553516507148743
            ]
        }
    ],
    "materials" : [
        {
            "doubleSided" : true,
            "name" : "Material.004",
            "pbrMetallicRoughness" : {
                "baseColorFactor" : [
                    0.8000000715255737,
                    0.1939573884010315,
                    0.005586543120443821,
                    1
                ],
                "metallicFactor" : 0,
                "roughnessFactor" : 0.5
            }
        }
    ],
    "meshes" : [
        {
            "name" : "mesh_id37.001",
            "primitives" : [
                {
                    "attributes" : {
                        "POSITION" : 0,
                        "NORMAL" : 1,
                        "TEXCOORD_0" : 2
                    },
                    "indices" : 3,
                    "material" : 0
                }
            ]
        }
    ],
    "accessors" : [
        {
            "bufferView" : 0,
            "componentType" : 5126,
            "count" : 46564,
            "max" : [
                10.843530654907227,
                6.8213911056518555,
                22.482078552246094
            ],
            "min" : [
                -12.0064697265625,
                -10.078608512878418,
                -9.939826965332031
            ],
            "type" : "VEC3"
        },
        {
            "bufferView" : 1,
            "componentType" : 5126,
            "count" : 46564,
            "type" : "VEC3"
        },
        {
            "bufferView" : 2,
            "componentType" : 5126,
            "count" : 46564,
            "type" : "VEC2"
        },
        {
            "bufferView" : 3,
            "componentType" : 5123,
            "count" : 46620,
            "type" : "SCALAR"
        }
    ],
    "bufferViews" : [
        {
            "buffer" : 0,
            "byteLength" : 558768,
            "byteOffset" : 0
        },
        {
            "buffer" : 0,
            "byteLength" : 558768,
            "byteOffset" : 558768
        },
        {
            "buffer" : 0,
            "byteLength" : 372512,
            "byteOffset" : 1117536
        },
        {
            "buffer" : 0,
            "byteLength" : 93240,
            "byteOffset" : 1490048
        }
    ],
    "buffers" : [
        {
            "byteLength" : 1583288,
            "uri" : "data:application/octet-stream;base64,"
        }
    ]
}
