{
    "asset" : {
        "generator" : "Khronos glTF Blender I/O v1.7.33",
        "version" : "2.0"
    },
    "scene" : 0,
    "scenes" : [
        {
            "name" : "Scene",
            "nodes" : [
                2
            ]
        }
    ],
    "nodes" : [
        {
            "mesh" : 0,
            "name" : "node_id32.003",
            "translation" : [
                -2.7700042724609375,
                0.06514397263526917,
                2.586562156677246
            ]
        },
        {
            "children" : [
                0
            ],
            "mesh" : 1,
            "name" : "node_id32",
            "rotation" : [
                -0.7071066498756409,
                0,
                0,
                0.70710688829422
            ],
            "scale" : [
                0.022287996485829353,
                0.022287989035248756,
                0.022287992760539055
            ],
            "translation" : [
                -0.0209049005061388,
                0.7932875156402588,
                -0.04570591449737549
            ]
        },
        {
            "children" : [
                1
            ],
            "name" : "root",
            "rotation" : [
                0.9994760751724243,
                -0.002814866602420807,
                -0.031659360975027084,
                -0.006114615127444267
            ],
            "scale" : [
                5.371013164520264,
                5.371013641357422,
                5.37101411819458
            ],
            "translation" : [
                -0.1081843301653862,
                6.2121405601501465,
                -0.24553516507148743
            ]
        }
    ],
    "materials" : [
        {
            "doubleSided" : true,
            "name" : "Material.003",
            "pbrMetallicRoughness" : {
                "baseColorFactor" : [
                    0.05472487956285477,
                    0,
                    0.060451358556747437,
                    1
                ],
                "metallicFactor" : 0,
                "roughnessFactor" : 0.5
            }
        },
        {
            "doubleSided" : true,
            "name" : "Material.001",
            "pbrMetallicRoughness" : {
                "baseColorFactor" : [
                    0.14914868772029877,
                    0.0062260753475129604,
                    0.007570530287921429,
                    1
                ],
                "metallicFactor" : 0,
                "roughnessFactor" : 0.5
            }
        }
    ],
    "meshes" : [
        {
            "name" : "mesh_id36.003",
            "primitives" : [
                {
                    "attributes" : {
                        "POSITION" : 0,
                        "NORMAL" : 1,
                        "TEXCOORD_0" : 2
                    },
                    "indices" : 3,
                    "material" : 0
                }
            ]
        },
        {
            "name" : "mesh_id33.001",
            "primitives" : [
                {
                    "attributes" : {
                        "POSITION" : 4,
                        "NORMAL" : 5,
                        "TEXCOORD_0" : 6
                    },
                    "indices" : 7,
                    "material" : 1
                }
            ]
        }
    ],
    "accessors" : [
        {
            "bufferView" : 0,
            "componentType" : 5126,
            "count" : 912,
            "max" : [
                2.069948434829712,
                3.924178123474121,
                2.7648773193359375
            ],
            "min" : [
                -3.122051477432251,
                -1.8578224182128906,
                -1.3571243286132812
            ],
            "type" : "VEC3"
        },
        {
            "bufferView" : 1,
            "componentType" : 5126,
            "count" : 912,
            "type" : "VEC3"
        },
        {
            "bufferView" : 2,
            "componentType" : 5126,
            "count" : 912,
            "type" : "VEC2"
        },
        {
            "bufferView" : 3,
            "componentType" : 5123,
            "count" : 912,
            "type" : "SCALAR"
        },
        {
            "bufferView" : 4,
            "componentType" : 5126,
            "count" : 3642,
            "max" : [
                7.721944808959961,
                7.099321365356445,
                5.809425354003906
            ],
            "min" : [
                -10.548055648803711,
                -9.308679580688477,
                -4.812568664550781
            ],
            "type" : "VEC3"
        },
        {
            "bufferView" : 5,
            "componentType" : 5126,
            "count" : 3642,
            "type" : "VEC3"
        },
        {
            "bufferView" : 6,
            "componentType" : 5126,
            "count" : 3642,
            "type" : "VEC2"
        },
        {
            "bufferView" : 7,
            "componentType" : 5123,
            "count" : 3654,
            "type" : "SCALAR"
        }
    ],
    "bufferViews" : [
        {
            "buffer" : 0,
            "byteLength" : 10944,
            "byteOffset" : 0
        },
        {
            "buffer" : 0,
            "byteLength" : 10944,
            "byteOffset" : 10944
        },
        {
            "buffer" : 0,
            "byteLength" : 7296,
            "byteOffset" : 21888
        },
        {
            "buffer" : 0,
            "byteLength" : 1824,
            "byteOffset" : 29184
        },
        {
            "buffer" : 0,
            "byteLength" : 43704,
            "byteOffset" : 31008
        },
        {
            "buffer" : 0,
            "byteLength" : 43704,
            "byteOffset" : 74712
        },
        {
            "buffer" : 0,
            "byteLength" : 29136,
            "byteOffset" : 118416
        },
        {
            "buffer" : 0,
            "byteLength" : 7308,
            "byteOffset" : 147552
        }
    ],
    "buffers" : [
        {
            "byteLength" : 154860,
            "uri" : "data:application/octet-stream;base64,"
        }
    ]
}
