{
    "asset" : {
        "generator" : "Khronos glTF Blender I/O v1.7.33",
        "version" : "2.0"
    },
    "scene" : 0,
    "scenes" : [
        {
            "name" : "Scene",
            "nodes" : [
                0
            ]
        }
    ],
    "nodes" : [
        {
            "mesh" : 0,
            "name" : "Cube.001",
            "rotation" : [
                0,
                -0.9999979138374329,
                0,
                0.0020563150756061077
            ],
            "scale" : [
                0.3411558270454407,
                0.34115585684776306,
                0.3411558270454407
            ],
            "translation" : [
                0.08068760484457016,
                0.02969372272491455,
                0.4860353469848633
            ]
        }
    ],
    "materials" : [
        {
            "doubleSided" : true,
            "name" : "Material.186",
            "pbrMetallicRoughness" : {
                "baseColorFactor" : [
                    0.5457248687744141,
                    0.6038272976875305,
                    0.01444387435913086,
                    0
                ],
                "metallicFactor" : 0,
                "roughnessFactor" : 0.690034806728363
            }
        }
    ],
    "meshes" : [
        {
            "name" : "Cube.028",
            "primitives" : [
                {
                    "attributes" : {
                        "POSITION" : 0,
                        "NORMAL" : 1
                    },
                    "indices" : 2,
                    "material" : 0
                }
            ]
        }
    ],
    "accessors" : [
        {
            "bufferView" : 0,
            "componentType" : 5126,
            "count" : 690,
            "max" : [
                1.3365452289581299,
                0.8684149384498596,
                3.726170301437378
            ],
            "min" : [
                -1.3365452289581299,
                -0.02632659673690796,
                -7.480923652648926
            ],
            "type" : "VEC3"
        },
        {
            "bufferView" : 1,
            "componentType" : 5126,
            "count" : 690,
            "type" : "VEC3"
        },
        {
            "bufferView" : 2,
            "componentType" : 5123,
            "count" : 4128,
            "type" : "SCALAR"
        }
    ],
    "bufferViews" : [
        {
            "buffer" : 0,
            "byteLength" : 8280,
            "byteOffset" : 0
        },
        {
            "buffer" : 0,
            "byteLength" : 8280,
            "byteOffset" : 8280
        },
        {
            "buffer" : 0,
            "byteLength" : 8256,
            "byteOffset" : 16560
        }
    ],
    "buffers" : [
        {
            "byteLength" : 24816,
            "uri" : "data:application/octet-stream;base64,"
        }
    ]
}
