{
    "asset" : {
        "generator" : "Khronos glTF Blender I/O v1.7.33",
        "version" : "2.0"
    },
    "scene" : 0,
    "scenes" : [
        {
            "name" : "Scene",
            "nodes" : [
                0
            ]
        }
    ],
    "nodes" : [
        {
            "mesh" : 0,
            "name" : "node_id60.001",
            "rotation" : [
                0.7071068286895752,
                0,
                0,
                -0.7071068286895752
            ],
            "scale" : [
                0.01686551608145237,
                0.01349241379648447,
                0.03373103216290474
            ]
        }
    ],
    "materials" : [
        {
            "doubleSided" : true,
            "name" : "Material.046",
            "pbrMetallicRoughness" : {
                "baseColorFactor" : [
                    0.002124607563018799,
                    0.056128546595573425,
                    0.8468735814094543,
                    1
                ],
                "metallicFactor" : 0,
                "roughnessFactor" : 0.5
            }
        },
        {
            "doubleSided" : true,
            "name" : "Material.045",
            "pbrMetallicRoughness" : {
                "baseColorFactor" : [
                    0.8387994170188904,
                    0.002124540274962783,
                    0.002124706283211708,
                    1
                ],
                "metallicFactor" : 0,
                "roughnessFactor" : 0.5
            }
        }
    ],
    "meshes" : [
        {
            "name" : "mesh_id62.001",
            "primitives" : [
                {
                    "attributes" : {
                        "POSITION" : 0,
                        "NORMAL" : 1,
                        "TEXCOORD_0" : 2,
                        "COLOR_0" : 3
                    },
                    "indices" : 4,
                    "material" : 0
                },
                {
                    "attributes" : {
                        "POSITION" : 5,
                        "NORMAL" : 6,
                        "TEXCOORD_0" : 7,
                        "COLOR_0" : 8
                    },
                    "indices" : 9,
                    "material" : 1
                }
            ]
        }
    ],
    "accessors" : [
        {
            "bufferView" : 0,
            "componentType" : 5126,
            "count" : 1525,
            "max" : [
                19.99928855895996,
                19.978107452392578,
                0.042812347412109375
            ],
            "min" : [
                -19.99871253967285,
                -20.019895553588867,
                -39.957191467285156
            ],
            "type" : "VEC3"
        },
        {
            "bufferView" : 1,
            "componentType" : 5126,
            "count" : 1525,
            "type" : "VEC3"
        },
        {
            "bufferView" : 2,
            "componentType" : 5126,
            "count" : 1525,
            "type" : "VEC2"
        },
        {
            "bufferView" : 3,
            "componentType" : 5123,
            "count" : 1525,
            "normalized" : true,
            "type" : "VEC4"
        },
        {
            "bufferView" : 4,
            "componentType" : 5123,
            "count" : 1674,
            "type" : "SCALAR"
        },
        {
            "bufferView" : 5,
            "componentType" : 5126,
            "count" : 152,
            "max" : [
                19.999155044555664,
                19.989158630371094,
                39.9642333984375
            ],
            "min" : [
                -19.99884605407715,
                -20.00887107849121,
                -0.035770416259765625
            ],
            "type" : "VEC3"
        },
        {
            "bufferView" : 6,
            "componentType" : 5126,
            "count" : 152,
            "type" : "VEC3"
        },
        {
            "bufferView" : 7,
            "componentType" : 5126,
            "count" : 152,
            "type" : "VEC2"
        },
        {
            "bufferView" : 8,
            "componentType" : 5123,
            "count" : 152,
            "normalized" : true,
            "type" : "VEC4"
        },
        {
            "bufferView" : 9,
            "componentType" : 5123,
            "count" : 156,
            "type" : "SCALAR"
        }
    ],
    "bufferViews" : [
        {
            "buffer" : 0,
            "byteLength" : 18300,
            "byteOffset" : 0
        },
        {
            "buffer" : 0,
            "byteLength" : 18300,
            "byteOffset" : 18300
        },
        {
            "buffer" : 0,
            "byteLength" : 12200,
            "byteOffset" : 36600
        },
        {
            "buffer" : 0,
            "byteLength" : 12200,
            "byteOffset" : 48800
        },
        {
            "buffer" : 0,
            "byteLength" : 3348,
            "byteOffset" : 61000
        },
        {
            "buffer" : 0,
            "byteLength" : 1824,
            "byteOffset" : 64348
        },
        {
            "buffer" : 0,
            "byteLength" : 1824,
            "byteOffset" : 66172
        },
        {
            "buffer" : 0,
            "byteLength" : 1216,
            "byteOffset" : 67996
        },
        {
            "buffer" : 0,
            "byteLength" : 1216,
            "byteOffset" : 69212
        },
        {
            "buffer" : 0,
            "byteLength" : 312,
            "byteOffset" : 70428
        }
    ],
    "buffers" : [
        {
            "byteLength" : 70740,
            "uri" : "data:application/octet-stream;base64,"
        }
    ]
}
