{
    "asset" : {
        "generator" : "Khronos glTF Blender I/O v1.7.33",
        "version" : "2.0"
    },
    "scene" : 0,
    "scenes" : [
        {
            "name" : "Scene",
            "nodes" : [
                0
            ]
        }
    ],
    "nodes" : [
        {
            "mesh" : 0,
            "name" : "node_id60.001",
            "rotation" : [
                0.7071068286895752,
                0,
                0,
                -0.7071068286895752
            ],
            "scale" : [
                0.0407877042889595,
                0.03263016417622566,
                0.081575408577919
            ],
            "translation" : [
                0.5210113525390625,
                0.31836891174316406,
                0.9999914765357971
            ]
        }
    ],
    "materials" : [
        {
            "doubleSided" : true,
            "name" : "Material.046",
            "pbrMetallicRoughness" : {
                "baseColorFactor" : [
                    0.002124607563018799,
                    0.056128546595573425,
                    0.8468735814094543,
                    1
                ],
                "metallicFactor" : 0,
                "roughnessFactor" : 0.5
            }
        },
        {
            "doubleSided" : true,
            "name" : "Material.045",
            "pbrMetallicRoughness" : {
                "baseColorFactor" : [
                    0.8387994170188904,
                    0.002124540274962783,
                    0.002124706283211708,
                    1
                ],
                "metallicFactor" : 0,
                "roughnessFactor" : 0.5
            }
        }
    ],
    "meshes" : [
        {
            "name" : "mesh_id62.001",
            "primitives" : [
                {
                    "attributes" : {
                        "POSITION" : 0,
                        "NORMAL" : 1,
                        "TEXCOORD_0" : 2,
                        "COLOR_0" : 3
                    },
                    "indices" : 4,
                    "material" : 0
                },
                {
                    "attributes" : {
                        "POSITION" : 5,
                        "NORMAL" : 6,
                        "TEXCOORD_0" : 7,
                        "COLOR_0" : 8
                    },
                    "indices" : 9,
                    "material" : 1
                }
            ]
        }
    ],
    "accessors" : [
        {
            "bufferView" : 0,
            "componentType" : 5126,
            "count" : 1372,
            "max" : [
                19.99928855895996,
                19.978092193603516,
                0.04281044006347656
            ],
            "min" : [
                -19.99871253967285,
                -20.019908905029297,
                -39.957191467285156
            ],
            "type" : "VEC3"
        },
        {
            "bufferView" : 1,
            "componentType" : 5126,
            "count" : 1372,
            "type" : "VEC3"
        },
        {
            "bufferView" : 2,
            "componentType" : 5126,
            "count" : 1372,
            "type" : "VEC2"
        },
        {
            "bufferView" : 3,
            "componentType" : 5123,
            "count" : 1372,
            "normalized" : true,
            "type" : "VEC4"
        },
        {
            "bufferView" : 4,
            "componentType" : 5123,
            "count" : 1674,
            "type" : "SCALAR"
        },
        {
            "bufferView" : 5,
            "componentType" : 5126,
            "count" : 116,
            "max" : [
                19.999155044555664,
                19.98914337158203,
                39.9642333984375
            ],
            "min" : [
                -19.99884605407715,
                -20.008888244628906,
                -0.03577232360839844
            ],
            "type" : "VEC3"
        },
        {
            "bufferView" : 6,
            "componentType" : 5126,
            "count" : 116,
            "type" : "VEC3"
        },
        {
            "bufferView" : 7,
            "componentType" : 5126,
            "count" : 116,
            "type" : "VEC2"
        },
        {
            "bufferView" : 8,
            "componentType" : 5123,
            "count" : 116,
            "normalized" : true,
            "type" : "VEC4"
        },
        {
            "bufferView" : 9,
            "componentType" : 5123,
            "count" : 156,
            "type" : "SCALAR"
        }
    ],
    "bufferViews" : [
        {
            "buffer" : 0,
            "byteLength" : 16464,
            "byteOffset" : 0
        },
        {
            "buffer" : 0,
            "byteLength" : 16464,
            "byteOffset" : 16464
        },
        {
            "buffer" : 0,
            "byteLength" : 10976,
            "byteOffset" : 32928
        },
        {
            "buffer" : 0,
            "byteLength" : 10976,
            "byteOffset" : 43904
        },
        {
            "buffer" : 0,
            "byteLength" : 3348,
            "byteOffset" : 54880
        },
        {
            "buffer" : 0,
            "byteLength" : 1392,
            "byteOffset" : 58228
        },
        {
            "buffer" : 0,
            "byteLength" : 1392,
            "byteOffset" : 59620
        },
        {
            "buffer" : 0,
            "byteLength" : 928,
            "byteOffset" : 61012
        },
        {
            "buffer" : 0,
            "byteLength" : 928,
            "byteOffset" : 61940
        },
        {
            "buffer" : 0,
            "byteLength" : 312,
            "byteOffset" : 62868
        }
    ],
    "buffers" : [
        {
            "byteLength" : 63180,
            "uri" : "data:application/octet-stream;base64,"
        }
    ]
}
