{
    "asset" : {
        "generator" : "Khronos glTF Blender I/O v1.7.33",
        "version" : "2.0"
    },
    "scene" : 0,
    "scenes" : [
        {
            "name" : "Scene",
            "nodes" : [
                0
            ]
        }
    ],
    "nodes" : [
        {
            "mesh" : 0,
            "name" : "Cylinder",
            "scale" : [
                0.3616490960121155,
                0.45024532079696655,
                0.3616490960121155
            ],
            "translation" : [
                0,
                0.47359323501586914,
                0
            ]
        }
    ],
    "materials" : [
        {
            "doubleSided" : true,
            "name" : "Material.001",
            "pbrMetallicRoughness" : {
                "baseColorFactor" : [
                    0.11558013409376144,
                    0.07917173951864243,
                    0.044235214591026306,
                    1
                ],
                "metallicFactor" : 0,
                "roughnessFactor" : 0.5
            }
        },
        {
            "doubleSided" : true,
            "name" : "Material.002",
            "pbrMetallicRoughness" : {
                "baseColorFactor" : [
                    0.2115677297115326,
                    0.1674710512161255,
                    0.10040326416492462,
                    1
                ],
                "metallicFactor" : 0,
                "roughnessFactor" : 0.5
            }
        },
        {
            "doubleSided" : true,
            "name" : "Material.003",
            "pbrMetallicRoughness" : {
                "baseColorFactor" : [
                    0.39722132682800293,
                    0.30818045139312744,
                    0.18808019161224365,
                    1
                ],
                "metallicFactor" : 0,
                "roughnessFactor" : 0.5
            }
        }
    ],
    "meshes" : [
        {
            "name" : "Cylinder",
            "primitives" : [
                {
                    "attributes" : {
                        "POSITION" : 0,
                        "NORMAL" : 1,
                        "TEXCOORD_0" : 2
                    },
                    "indices" : 3,
                    "material" : 0
                },
                {
                    "attributes" : {
                        "POSITION" : 4,
                        "NORMAL" : 5,
                        "TEXCOORD_0" : 6
                    },
                    "indices" : 3,
                    "material" : 1
                },
                {
                    "attributes" : {
                        "POSITION" : 7,
                        "NORMAL" : 8,
                        "TEXCOORD_0" : 9
                    },
                    "indices" : 3,
                    "material" : 2
                }
            ]
        }
    ],
    "accessors" : [
        {
            "bufferView" : 0,
            "componentType" : 5126,
            "count" : 427,
            "max" : [
                2.8576791286468506,
                1.4808310270309448,
                2.813547134399414
            ],
            "min" : [
                -2.8576791286468506,
                -1.061547040939331,
                -2.8831615447998047
            ],
            "type" : "VEC3"
        },
        {
            "bufferView" : 1,
            "componentType" : 5126,
            "count" : 427,
            "type" : "VEC3"
        },
        {
            "bufferView" : 2,
            "componentType" : 5126,
            "count" : 427,
            "type" : "VEC2"
        },
        {
            "bufferView" : 3,
            "componentType" : 5123,
            "count" : 2100,
            "type" : "SCALAR"
        },
        {
            "bufferView" : 4,
            "componentType" : 5126,
            "count" : 427,
            "max" : [
                -1.0011274814605713,
                0.17174440622329712,
                2.866483688354492
            ],
            "min" : [
                -4.268945693969727,
                -1.3182916641235352,
                -0.3027399778366089
            ],
            "type" : "VEC3"
        },
        {
            "bufferView" : 5,
            "componentType" : 5126,
            "count" : 427,
            "type" : "VEC3"
        },
        {
            "bufferView" : 6,
            "componentType" : 5126,
            "count" : 427,
            "type" : "VEC2"
        },
        {
            "bufferView" : 7,
            "componentType" : 5126,
            "count" : 427,
            "max" : [
                0.6142671704292297,
                0.35144490003585815,
                -0.2013486623764038
            ],
            "min" : [
                -2.6054813861846924,
                -1.092707872390747,
                -3.463534355163574
            ],
            "type" : "VEC3"
        },
        {
            "bufferView" : 8,
            "componentType" : 5126,
            "count" : 427,
            "type" : "VEC3"
        },
        {
            "bufferView" : 9,
            "componentType" : 5126,
            "count" : 427,
            "type" : "VEC2"
        }
    ],
    "bufferViews" : [
        {
            "buffer" : 0,
            "byteLength" : 5124,
            "byteOffset" : 0
        },
        {
            "buffer" : 0,
            "byteLength" : 5124,
            "byteOffset" : 5124
        },
        {
            "buffer" : 0,
            "byteLength" : 3416,
            "byteOffset" : 10248
        },
        {
            "buffer" : 0,
            "byteLength" : 4200,
            "byteOffset" : 13664
        },
        {
            "buffer" : 0,
            "byteLength" : 5124,
            "byteOffset" : 17864
        },
        {
            "buffer" : 0,
            "byteLength" : 5124,
            "byteOffset" : 22988
        },
        {
            "buffer" : 0,
            "byteLength" : 3416,
            "byteOffset" : 28112
        },
        {
            "buffer" : 0,
            "byteLength" : 5124,
            "byteOffset" : 31528
        },
        {
            "buffer" : 0,
            "byteLength" : 5124,
            "byteOffset" : 36652
        },
        {
            "buffer" : 0,
            "byteLength" : 3416,
            "byteOffset" : 41776
        }
    ],
    "buffers" : [
        {
            "byteLength" : 45192,
            "uri" : "data:application/octet-stream;base64,"
        }
    ]
}
