{
    "asset" : {
        "generator" : "Khronos glTF Blender I/O v1.7.33",
        "version" : "2.0"
    },
    "extensionsUsed" : [
        "KHR_materials_transmission"
    ],
    "scene" : 0,
    "scenes" : [
        {
            "name" : "Scene",
            "nodes" : [
                0
            ]
        }
    ],
    "nodes" : [
        {
            "mesh" : 0,
            "name" : "Sphere",
            "scale" : [
                0.8030436038970947,
                0.8030436038970947,
                0.8030436038970947
            ],
            "translation" : [
                0,
                2.1339688301086426,
                0
            ]
        }
    ],
    "materials" : [
        {
            "doubleSided" : true,
            "extensions" : {
                "KHR_materials_transmission" : {
                    "transmissionFactor" : 0.8532110452651978
                }
            },
            "name" : "Material.001",
            "pbrMetallicRoughness" : {
                "baseColorFactor" : [
                    0.0011053187772631645,
                    0,
                    0.8000000715255737,
                    1
                ],
                "metallicFactor" : 0,
                "roughnessFactor" : 0.45871561765670776
            }
        }
    ],
    "meshes" : [
        {
            "name" : "Sphere",
            "primitives" : [
                {
                    "attributes" : {
                        "POSITION" : 0,
                        "NORMAL" : 1,
                        "TEXCOORD_0" : 2
                    },
                    "indices" : 3,
                    "material" : 0
                }
            ]
        }
    ],
    "accessors" : [
        {
            "bufferView" : 0,
            "componentType" : 5126,
            "count" : 3304,
            "max" : [
                0.9999997019767761,
                0.3826834261417389,
                0.9999994039535522
            ],
            "min" : [
                -0.9999990463256836,
                -2.648876905441284,
                -0.9999987483024597
            ],
            "type" : "VEC3"
        },
        {
            "bufferView" : 1,
            "componentType" : 5126,
            "count" : 3304,
            "type" : "VEC3"
        },
        {
            "bufferView" : 2,
            "componentType" : 5126,
            "count" : 3304,
            "type" : "VEC2"
        },
        {
            "bufferView" : 3,
            "componentType" : 5123,
            "count" : 10560,
            "type" : "SCALAR"
        }
    ],
    "bufferViews" : [
        {
            "buffer" : 0,
            "byteLength" : 39648,
            "byteOffset" : 0
        },
        {
            "buffer" : 0,
            "byteLength" : 39648,
            "byteOffset" : 39648
        },
        {
            "buffer" : 0,
            "byteLength" : 26432,
            "byteOffset" : 79296
        },
        {
            "buffer" : 0,
            "byteLength" : 21120,
            "byteOffset" : 105728
        }
    ],
    "buffers" : [
        {
            "byteLength" : 126848,
            "uri" : "data:application/octet-stream;base64,"
        }
    ]
}
