{
    "asset" : {
        "generator" : "Khronos glTF Blender I/O v1.7.33",
        "version" : "2.0"
    },
    "scene" : 0,
    "scenes" : [
        {
            "name" : "Scene",
            "nodes" : [
                0
            ]
        }
    ],
    "nodes" : [
        {
            "mesh" : 0,
            "name" : "Cone.003",
            "rotation" : [
                0.011588314548134804,
                -0.5199015140533447,
                0.006947420537471771,
                0.8541193604469299
            ],
            "scale" : [
                0.3053576350212097,
                3.31345796585083,
                0.30535760521888733
            ],
            "translation" : [
                0.04929236322641373,
                1.3446977138519287,
                0.00518108531832695
            ]
        }
    ],
    "materials" : [
        {
            "doubleSided" : true,
            "name" : "Material.001",
            "pbrMetallicRoughness" : {
                "baseColorFactor" : [
                    0.04358081519603729,
                    0.15319322049617767,
                    0.020319748669862747,
                    1
                ],
                "metallicFactor" : 0,
                "roughnessFactor" : 0.5
            }
        }
    ],
    "meshes" : [
        {
            "name" : "Cone.008",
            "primitives" : [
                {
                    "attributes" : {
                        "POSITION" : 0,
                        "NORMAL" : 1,
                        "TEXCOORD_0" : 2
                    },
                    "indices" : 3,
                    "material" : 0
                }
            ]
        }
    ],
    "accessors" : [
        {
            "bufferView" : 0,
            "componentType" : 5126,
            "count" : 73728,
            "max" : [
                3.452104091644287,
                0.590989351272583,
                4.036853790283203
            ],
            "min" : [
                -3.2224159240722656,
                -0.42100614309310913,
                -4.132758617401123
            ],
            "type" : "VEC3"
        },
        {
            "bufferView" : 1,
            "componentType" : 5126,
            "count" : 73728,
            "type" : "VEC3"
        },
        {
            "bufferView" : 2,
            "componentType" : 5126,
            "count" : 73728,
            "type" : "VEC2"
        },
        {
            "bufferView" : 3,
            "componentType" : 5125,
            "count" : 110592,
            "type" : "SCALAR"
        }
    ],
    "bufferViews" : [
        {
            "buffer" : 0,
            "byteLength" : 884736,
            "byteOffset" : 0
        },
        {
            "buffer" : 0,
            "byteLength" : 884736,
            "byteOffset" : 884736
        },
        {
            "buffer" : 0,
            "byteLength" : 589824,
            "byteOffset" : 1769472
        },
        {
            "buffer" : 0,
            "byteLength" : 442368,
            "byteOffset" : 2359296
        }
    ],
    "buffers" : [
        {
            "byteLength" : 2801664,
            "uri" : "data:application/octet-stream;base64,"
        }
    ]
}
