{
    "asset" : {
        "generator" : "Khronos glTF Blender I/O v1.7.33",
        "version" : "2.0"
    },
    "scene" : 0,
    "scenes" : [
        {
            "name" : "Scene",
            "nodes" : [
                2
            ]
        }
    ],
    "nodes" : [
        {
            "mesh" : 0,
            "name" : "node_id32.006",
            "translation" : [
                0.6269620656967163,
                0.5079059600830078,
                13.101563453674316
            ]
        },
        {
            "children" : [
                0
            ],
            "name" : "node_id32",
            "rotation" : [
                -0.7071066498756409,
                0,
                0,
                0.70710688829422
            ],
            "scale" : [
                0.022287996485829353,
                0.022287989035248756,
                0.022287992760539055
            ],
            "translation" : [
                -0.0209049005061388,
                0.7932875156402588,
                -0.04570591449737549
            ]
        },
        {
            "children" : [
                1
            ],
            "name" : "root",
            "rotation" : [
                0.9994760751724243,
                -0.002814866602420807,
                -0.031659360975027084,
                -0.006114615127444267
            ],
            "scale" : [
                5.371013164520264,
                5.371013641357422,
                5.37101411819458
            ],
            "translation" : [
                -0.1081843301653862,
                6.2121405601501465,
                -0.24553516507148743
            ]
        }
    ],
    "materials" : [
        {
            "doubleSided" : true,
            "name" : "Material.005",
            "pbrMetallicRoughness" : {
                "baseColorFactor" : [
                    0.8000000715255737,
                    0.2678432762622833,
                    0.5688029527664185,
                    1
                ],
                "metallicFactor" : 0,
                "roughnessFactor" : 0.5
            }
        }
    ],
    "meshes" : [
        {
            "name" : "mesh_id39.001",
            "primitives" : [
                {
                    "attributes" : {
                        "POSITION" : 0,
                        "NORMAL" : 1,
                        "TEXCOORD_0" : 2
                    },
                    "indices" : 3,
                    "material" : 0
                }
            ]
        }
    ],
    "accessors" : [
        {
            "bufferView" : 0,
            "componentType" : 5126,
            "count" : 33948,
            "max" : [
                8.51898193359375,
                4.035416603088379,
                5.6478729248046875
            ],
            "min" : [
                -8.803018569946289,
                -5.5685834884643555,
                -5.9581298828125
            ],
            "type" : "VEC3"
        },
        {
            "bufferView" : 1,
            "componentType" : 5126,
            "count" : 33948,
            "type" : "VEC3"
        },
        {
            "bufferView" : 2,
            "componentType" : 5126,
            "count" : 33948,
            "type" : "VEC2"
        },
        {
            "bufferView" : 3,
            "componentType" : 5123,
            "count" : 33993,
            "type" : "SCALAR"
        }
    ],
    "bufferViews" : [
        {
            "buffer" : 0,
            "byteLength" : 407376,
            "byteOffset" : 0
        },
        {
            "buffer" : 0,
            "byteLength" : 407376,
            "byteOffset" : 407376
        },
        {
            "buffer" : 0,
            "byteLength" : 271584,
            "byteOffset" : 814752
        },
        {
            "buffer" : 0,
            "byteLength" : 67986,
            "byteOffset" : 1086336
        }
    ],
    "buffers" : [
        {
            "byteLength" : 1154324,
            "uri" : "data:application/octet-stream;base64,"
        }
    ]
}
