{
    "asset" : {
        "generator" : "Khronos glTF Blender I/O v1.7.33",
        "version" : "2.0"
    },
    "scene" : 0,
    "scenes" : [
        {
            "name" : "Scene",
            "nodes" : [
                2
            ]
        }
    ],
    "nodes" : [
        {
            "mesh" : 0,
            "name" : "node_id32.001",
            "translation" : [
                0.1015923023223877,
                -1.4855479001998901,
                1.7347865104675293
            ]
        },
        {
            "children" : [
                0
            ],
            "name" : "node_id32",
            "rotation" : [
                -0.7071066498756409,
                0,
                0,
                0.70710688829422
            ],
            "scale" : [
                0.022287996485829353,
                0.022287989035248756,
                0.022287992760539055
            ],
            "translation" : [
                -0.0209049005061388,
                0.7932875156402588,
                -0.04570591449737549
            ]
        },
        {
            "children" : [
                1
            ],
            "name" : "root",
            "rotation" : [
                0.9994760751724243,
                -0.002814866602420807,
                -0.031659360975027084,
                -0.006114615127444267
            ],
            "scale" : [
                5.371013164520264,
                5.371013641357422,
                5.37101411819458
            ],
            "translation" : [
                -0.1081843301653862,
                6.2121405601501465,
                -0.24553516507148743
            ]
        }
    ],
    "materials" : [
        {
            "doubleSided" : true,
            "name" : "Material.002",
            "pbrMetallicRoughness" : {
                "baseColorFactor" : [
                    0.8000000715255737,
                    0.08051007241010666,
                    0.27147242426872253,
                    1
                ],
                "metallicFactor" : 0,
                "roughnessFactor" : 0.5
            }
        }
    ],
    "meshes" : [
        {
            "name" : "mesh_id34.003",
            "primitives" : [
                {
                    "attributes" : {
                        "POSITION" : 0,
                        "NORMAL" : 1,
                        "TEXCOORD_0" : 2
                    },
                    "indices" : 3,
                    "material" : 0
                }
            ]
        }
    ],
    "accessors" : [
        {
            "bufferView" : 0,
            "componentType" : 5126,
            "count" : 2708,
            "max" : [
                8.6103515625,
                7.342869758605957,
                6.652656555175781
            ],
            "min" : [
                -5.119647979736328,
                -8.045130729675293,
                -33.54334259033203
            ],
            "type" : "VEC3"
        },
        {
            "bufferView" : 1,
            "componentType" : 5126,
            "count" : 2708,
            "type" : "VEC3"
        },
        {
            "bufferView" : 2,
            "componentType" : 5126,
            "count" : 2708,
            "type" : "VEC2"
        },
        {
            "bufferView" : 3,
            "componentType" : 5123,
            "count" : 2721,
            "type" : "SCALAR"
        }
    ],
    "bufferViews" : [
        {
            "buffer" : 0,
            "byteLength" : 32496,
            "byteOffset" : 0
        },
        {
            "buffer" : 0,
            "byteLength" : 32496,
            "byteOffset" : 32496
        },
        {
            "buffer" : 0,
            "byteLength" : 21664,
            "byteOffset" : 64992
        },
        {
            "buffer" : 0,
            "byteLength" : 5442,
            "byteOffset" : 86656
        }
    ],
    "buffers" : [
        {
            "byteLength" : 92100,
            "uri" : "data:application/octet-stream;base64,"
        }
    ]
}
