{
    "asset" : {
        "generator" : "Khronos glTF Blender I/O v1.7.33",
        "version" : "2.0"
    },
    "scene" : 0,
    "scenes" : [
        {
            "name" : "Scene",
            "nodes" : [
                2,
                3,
                4,
                5,
                6
            ]
        }
    ],
    "nodes" : [
        {
            "mesh" : 0,
            "name" : "node_id32.001",
            "translation" : [
                0,
                0,
                4.2282044887542725e-06
            ]
        },
        {
            "children" : [
                0
            ],
            "name" : "node_id32",
            "rotation" : [
                -0.7071066498756409,
                0,
                0,
                0.70710688829422
            ],
            "scale" : [
                0.022287996485829353,
                0.022287989035248756,
                0.022287992760539055
            ],
            "translation" : [
                -0.004194594919681549,
                3.618612051010132,
                0.20959675312042236
            ]
        },
        {
            "children" : [
                1
            ],
            "name" : "root",
            "rotation" : [
                0.9994760751724243,
                -0.002814866602420807,
                -0.031659360975027084,
                -0.006114615127444267
            ],
            "scale" : [
                6.56219482421875,
                6.562195301055908,
                6.56219482421875
            ],
            "translation" : [
                0.9266344308853149,
                9.771919250488281,
                -0.27416375279426575
            ]
        },
        {
            "mesh" : 1,
            "name" : "Cylinder.005",
            "rotation" : [
                0.3306560218334198,
                -0.3037617802619934,
                0.6190388798713684,
                0.6443495154380798
            ],
            "scale" : [
                0.15704429149627686,
                1.054876685142517,
                0.15594950318336487
            ],
            "translation" : [
                3.52793025970459,
                4.541044235229492,
                -0.10935689508914948
            ]
        },
        {
            "mesh" : 2,
            "name" : "Text.005",
            "rotation" : [
                0.7068493962287903,
                0.01908065751194954,
                -0.01908070407807827,
                0.706849217414856
            ],
            "scale" : [
                0.673747718334198,
                0.673747718334198,
                0.6737475991249084
            ],
            "translation" : [
                4.639547824859619,
                4.331418991088867,
                -0.15866762399673462
            ]
        },
        {
            "mesh" : 3,
            "name" : "Cylinder.011",
            "rotation" : [
                0.3306560218334198,
                -0.3037617802619934,
                0.6190388798713684,
                0.6443495154380798
            ],
            "scale" : [
                0.15704429149627686,
                1.054876685142517,
                0.15594950318336487
            ],
            "translation" : [
                2.5921785831451416,
                7.145094394683838,
                -1.2832788228988647
            ]
        },
        {
            "mesh" : 4,
            "name" : "Text.011",
            "rotation" : [
                0.7068493962287903,
                0.01908065751194954,
                -0.01908070407807827,
                0.706849217414856
            ],
            "scale" : [
                0.673747718334198,
                0.673747718334198,
                0.6737475991249084
            ],
            "translation" : [
                3.7037930488586426,
                6.9354705810546875,
                -1.332589030265808
            ]
        }
    ],
    "materials" : [
        {
            "doubleSided" : true,
            "name" : "Material_54.000",
            "pbrMetallicRoughness" : {
                "baseColorFactor" : [
                    0.6307575106620789,
                    0.2581828534603119,
                    0.18116429448127747,
                    1
                ],
                "roughnessFactor" : 0
            }
        },
        {
            "doubleSided" : true,
            "name" : "Material.098",
            "pbrMetallicRoughness" : {
                "baseColorFactor" : [
                    0,
                    0.7991031408309937,
                    0.0006070807576179504,
                    1
                ],
                "metallicFactor" : 0,
                "roughnessFactor" : 0.5
            }
        },
        {
            "doubleSided" : true,
            "name" : "Material.099",
            "pbrMetallicRoughness" : {
                "baseColorFactor" : [
                    0.004024717956781387,
                    0.003676507854834199,
                    0.003676507854834199,
                    1
                ],
                "metallicFactor" : 0,
                "roughnessFactor" : 0.5
            }
        },
        {
            "doubleSided" : true,
            "name" : "Material.110",
            "pbrMetallicRoughness" : {
                "baseColorFactor" : [
                    0,
                    0.7991031408309937,
                    0.0006070807576179504,
                    1
                ],
                "metallicFactor" : 0,
                "roughnessFactor" : 0.5
            }
        },
        {
            "doubleSided" : true,
            "name" : "Material.111",
            "pbrMetallicRoughness" : {
                "baseColorFactor" : [
                    0.004024717956781387,
                    0.003676507854834199,
                    0.003676507854834199,
                    1
                ],
                "metallicFactor" : 0,
                "roughnessFactor" : 0.5
            }
        }
    ],
    "meshes" : [
        {
            "name" : "mesh_id34.003",
            "primitives" : [
                {
                    "attributes" : {
                        "POSITION" : 0,
                        "NORMAL" : 1,
                        "TEXCOORD_0" : 2
                    },
                    "indices" : 3,
                    "material" : 0
                }
            ]
        },
        {
            "name" : "Cylinder.037",
            "primitives" : [
                {
                    "attributes" : {
                        "POSITION" : 4,
                        "NORMAL" : 5,
                        "TEXCOORD_0" : 6
                    },
                    "indices" : 7,
                    "material" : 1
                }
            ]
        },
        {
            "name" : "Text.041",
            "primitives" : [
                {
                    "attributes" : {
                        "POSITION" : 8,
                        "NORMAL" : 9
                    },
                    "indices" : 10,
                    "material" : 2
                }
            ]
        },
        {
            "name" : "Cylinder.043",
            "primitives" : [
                {
                    "attributes" : {
                        "POSITION" : 11,
                        "NORMAL" : 12,
                        "TEXCOORD_0" : 13
                    },
                    "indices" : 7,
                    "material" : 3
                }
            ]
        },
        {
            "name" : "Text.047",
            "primitives" : [
                {
                    "attributes" : {
                        "POSITION" : 14,
                        "NORMAL" : 15
                    },
                    "indices" : 16,
                    "material" : 4
                }
            ]
        }
    ],
    "accessors" : [
        {
            "bufferView" : 0,
            "componentType" : 5126,
            "count" : 2708,
            "max" : [
                7.962200164794922,
                17.312000274658203,
                -118.37699890136719
            ],
            "min" : [
                -5.7677998542785645,
                1.9240000247955322,
                -158.572998046875
            ],
            "type" : "VEC3"
        },
        {
            "bufferView" : 1,
            "componentType" : 5126,
            "count" : 2708,
            "type" : "VEC3"
        },
        {
            "bufferView" : 2,
            "componentType" : 5126,
            "count" : 2708,
            "type" : "VEC2"
        },
        {
            "bufferView" : 3,
            "componentType" : 5123,
            "count" : 2721,
            "type" : "SCALAR"
        },
        {
            "bufferView" : 4,
            "componentType" : 5126,
            "count" : 229,
            "max" : [
                1.8782013654708862,
                1.5115723609924316,
                1.8782012462615967
            ],
            "min" : [
                -1.8781996965408325,
                -1,
                -1.878199577331543
            ],
            "type" : "VEC3"
        },
        {
            "bufferView" : 5,
            "componentType" : 5126,
            "count" : 229,
            "type" : "VEC3"
        },
        {
            "bufferView" : 6,
            "componentType" : 5126,
            "count" : 229,
            "type" : "VEC2"
        },
        {
            "bufferView" : 7,
            "componentType" : 5123,
            "count" : 948,
            "type" : "SCALAR"
        },
        {
            "bufferView" : 8,
            "componentType" : 5126,
            "count" : 12821,
            "max" : [
                3.438000202178955,
                0.1899999976158142,
                0.02903420478105545
            ],
            "min" : [
                0.019916387274861336,
                -0.1899999976158142,
                -0.7110123634338379
            ],
            "type" : "VEC3"
        },
        {
            "bufferView" : 9,
            "componentType" : 5126,
            "count" : 12821,
            "type" : "VEC3"
        },
        {
            "bufferView" : 10,
            "componentType" : 5123,
            "count" : 59748,
            "type" : "SCALAR"
        },
        {
            "bufferView" : 11,
            "componentType" : 5126,
            "count" : 229,
            "max" : [
                1.8782013654708862,
                1.5115723609924316,
                1.8782012462615967
            ],
            "min" : [
                -1.8781996965408325,
                -1,
                -1.878199577331543
            ],
            "type" : "VEC3"
        },
        {
            "bufferView" : 12,
            "componentType" : 5126,
            "count" : 229,
            "type" : "VEC3"
        },
        {
            "bufferView" : 13,
            "componentType" : 5126,
            "count" : 229,
            "type" : "VEC2"
        },
        {
            "bufferView" : 14,
            "componentType" : 5126,
            "count" : 21240,
            "max" : [
                4.958034038543701,
                0.1899999976158142,
                0.2500137388706207
            ],
            "min" : [
                0.024959439411759377,
                -0.1899999976158142,
                -0.7110365629196167
            ],
            "type" : "VEC3"
        },
        {
            "bufferView" : 15,
            "componentType" : 5126,
            "count" : 21240,
            "type" : "VEC3"
        },
        {
            "bufferView" : 16,
            "componentType" : 5123,
            "count" : 99084,
            "type" : "SCALAR"
        }
    ],
    "bufferViews" : [
        {
            "buffer" : 0,
            "byteLength" : 32496,
            "byteOffset" : 0
        },
        {
            "buffer" : 0,
            "byteLength" : 32496,
            "byteOffset" : 32496
        },
        {
            "buffer" : 0,
            "byteLength" : 21664,
            "byteOffset" : 64992
        },
        {
            "buffer" : 0,
            "byteLength" : 5442,
            "byteOffset" : 86656
        },
        {
            "buffer" : 0,
            "byteLength" : 2748,
            "byteOffset" : 92100
        },
        {
            "buffer" : 0,
            "byteLength" : 2748,
            "byteOffset" : 94848
        },
        {
            "buffer" : 0,
            "byteLength" : 1832,
            "byteOffset" : 97596
        },
        {
            "buffer" : 0,
            "byteLength" : 1896,
            "byteOffset" : 99428
        },
        {
            "buffer" : 0,
            "byteLength" : 153852,
            "byteOffset" : 101324
        },
        {
            "buffer" : 0,
            "byteLength" : 153852,
            "byteOffset" : 255176
        },
        {
            "buffer" : 0,
            "byteLength" : 119496,
            "byteOffset" : 409028
        },
        {
            "buffer" : 0,
            "byteLength" : 2748,
            "byteOffset" : 528524
        },
        {
            "buffer" : 0,
            "byteLength" : 2748,
            "byteOffset" : 531272
        },
        {
            "buffer" : 0,
            "byteLength" : 1832,
            "byteOffset" : 534020
        },
        {
            "buffer" : 0,
            "byteLength" : 254880,
            "byteOffset" : 535852
        },
        {
            "buffer" : 0,
            "byteLength" : 254880,
            "byteOffset" : 790732
        },
        {
            "buffer" : 0,
            "byteLength" : 198168,
            "byteOffset" : 1045612
        }
    ],
    "buffers" : [
        {
            "byteLength" : 1243780,
            "uri" : "data:application/octet-stream;base64,"
        }
    ]
}
