{
    "asset" : {
        "generator" : "Khronos glTF Blender I/O v1.7.33",
        "version" : "2.0"
    },
    "scene" : 0,
    "scenes" : [
        {
            "name" : "Scene",
            "nodes" : [
                0
            ]
        }
    ],
    "nodes" : [
        {
            "mesh" : 0,
            "name" : "Sphere.002",
            "scale" : [
                0.21689856052398682,
                0.21689856052398682,
                0.21689856052398682
            ],
            "translation" : [
                -0.019597459584474564,
                0.022839784622192383,
                0.01961684226989746
            ]
        }
    ],
    "meshes" : [
        {
            "name" : "Sphere.002",
            "primitives" : [
                {
                    "attributes" : {
                        "POSITION" : 0,
                        "NORMAL" : 1,
                        "TEXCOORD_0" : 2
                    },
                    "indices" : 3
                }
            ]
        }
    ],
    "accessors" : [
        {
            "bufferView" : 0,
            "componentType" : 5126,
            "count" : 11904,
            "max" : [
                14.914030075073242,
                14.989429473876953,
                15.184989929199219
            ],
            "min" : [
                -15.275429725646973,
                -14.748276710510254,
                -14.914118766784668
            ],
            "type" : "VEC3"
        },
        {
            "bufferView" : 1,
            "componentType" : 5126,
            "count" : 11904,
            "type" : "VEC3"
        },
        {
            "bufferView" : 2,
            "componentType" : 5126,
            "count" : 11904,
            "type" : "VEC2"
        },
        {
            "bufferView" : 3,
            "componentType" : 5123,
            "count" : 17280,
            "type" : "SCALAR"
        }
    ],
    "bufferViews" : [
        {
            "buffer" : 0,
            "byteLength" : 142848,
            "byteOffset" : 0
        },
        {
            "buffer" : 0,
            "byteLength" : 142848,
            "byteOffset" : 142848
        },
        {
            "buffer" : 0,
            "byteLength" : 95232,
            "byteOffset" : 285696
        },
        {
            "buffer" : 0,
            "byteLength" : 34560,
            "byteOffset" : 380928
        }
    ],
    "buffers" : [
        {
            "byteLength" : 415488,
            "uri" : "data:application/octet-stream;base64,"
        }
    ]
}
